<svg xmlns="http://www.w3.org/2000/svg" xmlns:xlink="http://www.w3.org/1999/xlink" version="1.1" width="1000" height="1000" viewBox="0 0 1000 1000" xml:space="preserve">
<desc>Created with Fabric.js 3.5.0</desc>
<defs>
</defs>
<rect x="0" y="0" width="100%" height="100%" fill="rgba(255,255,255,0)"/>
<g transform="matrix(56.8182 0 0 56.8182 500.0001 500.0001)" id="500797">
<g style="" vector-effect="non-scaling-stroke">
		<g transform="matrix(1 0 0 1 0 0)" id="circle2">
<circle style="stroke: none; stroke-width: 1; stroke-dasharray: none; stroke-linecap: butt; stroke-dashoffset: 0; stroke-linejoin: miter; stroke-miterlimit: 4; is-custom-font: none; font-file-url: none; fill: none; fill-rule: nonzero; opacity: 1;" cx="0" cy="0" r="8"/>
</g>
		<g transform="matrix(1 0 0 1 0 0)" id="path4">
<path style="stroke: none; stroke-width: 1; stroke-dasharray: none; stroke-linecap: butt; stroke-dashoffset: 0; stroke-linejoin: miter; stroke-miterlimit: 4; is-custom-font: none; font-file-url: none; fill: rgb(0,168,120); fill-rule: nonzero; opacity: 1;" transform=" translate(-8, -8)" d="m 8 3 a 5 5 0 0 0 -5 5 a 5 5 0 0 0 5 5 a 5 5 0 0 0 5 -5 a 5 5 0 0 0 -5 -5 z m 0 1 a 4 4 0 0 1 4 4 a 4 4 0 0 1 -4 4 a 4 4 0 0 1 -4 -4 a 4 4 0 0 1 4 -4 z" stroke-linecap="round"/>
</g>
		<g transform="matrix(1 0 0 1 0 0)" id="path6">
<path style="stroke: none; stroke-width: 1; stroke-dasharray: none; stroke-linecap: butt; stroke-dashoffset: 0; stroke-linejoin: miter; stroke-miterlimit: 4; is-custom-font: none; font-file-url: none; fill: rgb(0,168,120); fill-rule: nonzero; opacity: 1;" transform=" translate(-8, -8)" d="m 8 6 c -0.554 0 -1 0.223 -1 0.5 v 3 c 0 0.277 0.446 0.5 1 0.5 s 1 -0.223 1 -0.5 v -3 c 0 -0.277 -0.446 -0.5 -1 -0.5 z" stroke-linecap="round"/>
</g>
</g>
</g>
</svg>